<svg  width="100%" height="100%" viewBox="0 0 91 47" fill="none" xmlns="http://www.w3.org/2000/svg">
<path  d="M67.0747 43.4511C58.3842 43.7314 56.2708 43.9357 46.9486 43.5632C35.061 43.0883 22.7601 42.4794 11.0971 39.9192C5.61354 38.7155 1.95517 36.2224 1.76279 30.3327C1.50968 22.5834 7.27706 17.5878 13.5217 14.0467C28.7513 5.41066 46.9381 1.69075 64.3277 2.2177C68.5053 2.3443 72.7664 2.55117 76.7734 3.89956C80.6054 5.18906 83.1932 7.94585 85.2387 11.3277C87.9609 15.8283 88.9722 20.9539 88.6585 26.1561C88.388 30.641 86.874 34.4883 83.3046 37.3684C78.7101 41.0757 72.6749 43.1126 67.327 45.4693" stroke="#288C66" stroke-opacity="0.5" stroke-width="3" stroke-linecap="round"/>
</svg>
