<svg width="100%" height="100%" viewBox="0 0 23 21" fill="none" xmlns="http://www.w3.org/2000/svg">
<path d="M12.107 18.8619C12.107 18.2192 12.2436 17.3274 11.8084 16.7817C11.0113 15.7822 9.77571 15.4588 8.61108 15.1397C7.53582 14.8451 6.39951 14.587 5.46671 13.9503C4.38886 13.2147 3.63799 12.3288 3.04463 11.1671C2.5792 10.2559 2.39266 9.10844 2.33198 8.09498C2.26834 7.03234 2.21933 5.9426 3.0639 5.17211C4.10112 4.22588 5.37255 3.73676 6.74757 3.53492C7.25949 3.45978 7.81148 3.38541 8.31735 3.53974C9.01431 3.75237 9.65741 4.47777 10.1616 4.96506C10.8879 5.66706 11.4038 6.47404 11.741 7.42084C11.787 7.54996 11.8246 8.23937 11.8566 7.912C11.9831 6.61544 12.1727 5.43418 13.176 4.5365C14.5165 3.33709 15.8592 2.6063 17.683 2.49964C18.1426 2.47277 18.6705 2.4432 19.0602 2.74041C19.7449 3.26254 20.2739 4.25055 20.5722 5.03247C21.187 6.6441 20.9122 8.25609 20.2929 9.82847C19.5749 11.6516 18.5199 13.7482 17.2063 15.2408C16.4101 16.1456 15.2963 16.6598 14.4279 17.4703C14.0086 17.8617 13.5861 18.236 13.1471 18.6019" stroke="#288C66" stroke-opacity="0.5" stroke-width="3" stroke-linecap="round"/>
</svg>
